<svg aria-hidden="true" style="position: absolute; width: 0; height: 0; overflow: hidden;" version="1.1" xmlns="http://www.w3.org/2000/svg" xmlns:xlink="http://www.w3.org/1999/xlink">
<defs>
<symbol id="icon-close" viewBox="0 0 32 32">
<path fill="none" stroke="#fbfbfb" style="stroke: var(--color1, #fbfbfb)" stroke-linejoin="round" stroke-linecap="round" stroke-miterlimit="4" stroke-width="2.4" d="M24 8l-16 16"></path>
<path fill="none" stroke="#fbfbfb" style="stroke: var(--color1, #fbfbfb)" stroke-linejoin="round" stroke-linecap="round" stroke-miterlimit="4" stroke-width="2.4" d="M8 8l16 16"></path>
</symbol>
<symbol id="icon-facebook" viewBox="0 0 32 32">
<path d="M19.352 5.181c0.229 0 0.457 0 0.914 0v3.429c-0.229 0-0.686 0-1.143 0s-0.914 0-1.143 0.229c-0.229 0.229-0.229 0.457-0.229 0.99 0 0.457 0 0.762 0 1.219h2.514v2.895h-2.514v12.571h-3.886v-12.648h-2.057v-2.895h2.057v-0.99c0-1.676 0.229-2.895 0.686-3.429 0.686-0.99 2.057-1.448 4.114-1.448 0.229 0.076 0.457 0.076 0.686 0.076z"></path>
</symbol>
<symbol id="icon-instagram" viewBox="0 0 32 32">
<path d="M28.112 11.006c-0.015-1.023-0.204-2.038-0.567-2.995-0.635-1.634-1.928-2.926-3.565-3.559-0.946-0.355-1.947-0.546-2.96-0.568-1.302-0.058-1.715-0.074-5.022-0.074s-3.73 0-5.023 0.074c-1.011 0.022-2.012 0.212-2.958 0.568-1.637 0.633-2.931 1.925-3.565 3.559-0.356 0.945-0.548 1.944-0.567 2.953-0.058 1.302-0.076 1.714-0.076 5.015s0 3.723 0.076 5.015c0.020 1.011 0.211 2.009 0.567 2.956 0.635 1.633 1.928 2.925 3.566 3.558 0.942 0.368 1.943 0.576 2.958 0.608 1.304 0.058 1.717 0.076 5.023 0.076s3.73 0 5.023-0.076c1.011-0.020 2.012-0.211 2.96-0.566 1.637-0.634 2.93-1.926 3.565-3.559 0.356-0.946 0.547-1.944 0.567-2.956 0.058-1.3 0.076-1.713 0.076-5.015-0.003-3.301-0.003-3.72-0.078-5.013zM15.991 22.22c-3.458 0-6.259-2.797-6.259-6.249s2.801-6.249 6.259-6.249c3.455 0 6.259 2.797 6.259 6.249s-2.804 6.249-6.259 6.249zM22.499 10.949c-0.808 0-1.459-0.652-1.459-1.457s0.651-1.457 1.459-1.457c0.805 0 1.458 0.652 1.458 1.457s-0.653 1.457-1.458 1.457z"></path>
<path d="M15.993 19.787c2.106 0 3.813-1.707 3.813-3.813s-1.707-3.813-3.813-3.813-3.813 1.707-3.813 3.813c0 2.106 1.707 3.813 3.813 3.813z"></path>
</symbol>
<symbol id="icon-menu" viewBox="0 0 32 32">
<path stroke-linejoin="round" stroke-linecap="round" stroke-miterlimit="4" stroke-width="2.4" d="M4 11.333h24M4 20.667h24"></path>
</symbol>
<symbol id="icon-youtube" viewBox="0 0 32 32">
<path d="M23.847 6.476c-1.295-0.076-3.962-0.152-8-0.152h-0.533c-3.886 0-6.476 0.076-7.771 0.229-1.752 0.152-2.971 0.61-3.657 1.219-0.61 0.533-1.067 1.524-1.219 2.819-0.076 0.838-0.152 2.59-0.152 5.257v0.381c0 2.514 0.076 4.267 0.229 5.105 0.229 1.219 0.61 2.133 1.371 2.667 0.762 0.61 2.057 0.99 3.886 1.143 1.295 0.076 3.962 0.152 8 0.152h0.533c3.886 0 6.476-0.076 7.771-0.229 1.752-0.152 2.971-0.61 3.657-1.219 0.61-0.533 1.067-1.524 1.219-2.819 0.076-0.838 0.152-2.59 0.152-5.257v-0.381c0-2.514-0.076-4.267-0.229-5.105-0.229-1.219-0.61-2.133-1.371-2.667-0.762-0.61-2.057-0.99-3.886-1.143zM20.876 15.847l-8.381 5.029v-10.057l8.381 5.029z"></path>
</symbol>
</defs>
</svg>
