<svg aria-hidden="true" style="position: absolute; width: 0; height: 0; overflow: hidden;" version="1.1" xmlns="http://www.w3.org/2000/svg" xmlns:xlink="http://www.w3.org/1999/xlink">
<defs>
<symbol id="icon-facebook" viewBox="0 0 32 32">
<path fill="none" stroke="#0c0c0c" style="stroke: var(--color1, #0c0c0c)" stroke-linejoin="miter" stroke-linecap="butt" stroke-miterlimit="4" stroke-width="0.8889" d="M8.889 0.444h14.222c4.664 0 8.444 3.781 8.444 8.444v14.222c0 4.664-3.781 8.444-8.444 8.444h-14.222c-4.664 0-8.444-3.781-8.444-8.444v-14.222c0-4.664 3.781-8.444 8.444-8.444z"></path>
<path d="M17.956 9.689c0.133 0 0.267 0 0.533 0v2c-0.133 0-0.4 0-0.667 0s-0.533 0-0.667 0.133c-0.133 0.133-0.133 0.267-0.133 0.578 0 0.267 0 0.444 0 0.711h1.467v1.689h-1.467v7.333h-2.267v-7.378h-1.2v-1.689h1.2v-0.578c0-0.978 0.133-1.689 0.4-2 0.4-0.578 1.2-0.844 2.4-0.844 0.133 0.044 0.267 0.044 0.4 0.044z"></path>
</symbol>
<symbol id="icon-instagram" viewBox="0 0 32 32">
<path fill="none" stroke="#0c0c0c" style="stroke: var(--color1, #0c0c0c)" stroke-linejoin="miter" stroke-linecap="butt" stroke-miterlimit="4" stroke-width="0.8889" d="M8.889 0.444h14.222c4.664 0 8.444 3.781 8.444 8.444v14.222c0 4.664-3.781 8.444-8.444 8.444h-14.222c-4.664 0-8.444-3.781-8.444-8.444v-14.222c0-4.664 3.781-8.444 8.444-8.444z"></path>
<path d="M23.065 13.087c-0.009-0.597-0.119-1.189-0.331-1.747-0.37-0.953-1.125-1.707-2.079-2.076-0.552-0.207-1.136-0.319-1.727-0.331-0.76-0.034-1.001-0.043-2.929-0.043s-2.176 0-2.93 0.043c-0.59 0.013-1.174 0.124-1.726 0.331-0.955 0.369-1.71 1.123-2.079 2.076-0.208 0.551-0.32 1.134-0.331 1.723-0.034 0.759-0.044 1-0.044 2.925s0 2.171 0.044 2.925c0.012 0.59 0.123 1.172 0.331 1.724 0.37 0.953 1.125 1.706 2.080 2.075 0.55 0.214 1.133 0.336 1.726 0.355 0.761 0.034 1.001 0.044 2.93 0.044s2.176 0 2.93-0.044c0.59-0.012 1.174-0.123 1.727-0.33 0.955-0.37 1.709-1.124 2.079-2.076 0.208-0.552 0.319-1.134 0.331-1.724 0.034-0.759 0.044-0.999 0.044-2.925-0.002-1.925-0.002-2.17-0.046-2.924zM15.995 19.629c-2.017 0-3.651-1.631-3.651-3.645s1.634-3.645 3.651-3.645c2.015 0 3.651 1.631 3.651 3.645s-1.636 3.645-3.651 3.645zM19.791 13.053c-0.472 0-0.851-0.38-0.851-0.85s0.38-0.85 0.851-0.85c0.47 0 0.851 0.38 0.851 0.85s-0.381 0.85-0.851 0.85z"></path>
<path d="M15.996 18.209c1.229 0 2.224-0.996 2.224-2.224s-0.996-2.224-2.224-2.224c-1.229 0-2.224 0.996-2.224 2.224s0.996 2.224 2.224 2.224z"></path>
</symbol>
<symbol id="icon-youtube" viewBox="0 0 32 32">
<path fill="none" stroke="#0c0c0c" style="stroke: var(--color1, #0c0c0c)" stroke-linejoin="miter" stroke-linecap="butt" stroke-miterlimit="4" stroke-width="0.8889" d="M8.889 0.444h14.222c4.664 0 8.444 3.781 8.444 8.444v14.222c0 4.664-3.781 8.444-8.444 8.444h-14.222c-4.664 0-8.444-3.781-8.444-8.444v-14.222c0-4.664 3.781-8.444 8.444-8.444z"></path>
<path d="M20.578 10.444c-0.756-0.044-2.311-0.089-4.667-0.089h-0.311c-2.267 0-3.778 0.044-4.533 0.133-1.022 0.089-1.733 0.356-2.133 0.711-0.356 0.311-0.622 0.889-0.711 1.644-0.044 0.489-0.089 1.511-0.089 3.067v0.222c0 1.467 0.044 2.489 0.133 2.978 0.133 0.711 0.356 1.244 0.8 1.556 0.444 0.356 1.2 0.578 2.267 0.667 0.756 0.044 2.311 0.089 4.667 0.089h0.311c2.267 0 3.778-0.044 4.533-0.133 1.022-0.089 1.733-0.356 2.133-0.711 0.356-0.311 0.622-0.889 0.711-1.644 0.044-0.489 0.089-1.511 0.089-3.067v-0.222c0-1.467-0.044-2.489-0.133-2.978-0.133-0.711-0.356-1.244-0.8-1.556-0.444-0.356-1.2-0.578-2.267-0.667zM18.844 15.911l-4.889 2.933v-5.867l4.889 2.933z"></path>
</symbol>
<symbol id="icon-menu" viewBox="0 0 32 32">
<path stroke-linejoin="round" stroke-linecap="round" stroke-miterlimit="4" stroke-width="2.4" d="M4 11.333h24M4 20.667h24"></path>
</symbol>
<symbol id="icon-close" viewBox="0 0 32 32">
<path fill="none" stroke="#fbfbfb" style="stroke: var(--color2, #fbfbfb)" stroke-linejoin="round" stroke-linecap="round" stroke-miterlimit="4" stroke-width="2.3529" d="M24 8l-16 16"></path>
<path fill="none" stroke="#fbfbfb" style="stroke: var(--color2, #fbfbfb)" stroke-linejoin="round" stroke-linecap="round" stroke-miterlimit="4" stroke-width="2.3529" d="M8 8l16 16"></path>
</symbol>
</defs>
</svg>
